<svg 
          width="27.73002815246582" 
          height="29.91227912902832" fill="none" 
          xmlns="http://www.w3.org/2000/svg">
          <path d="M 23.105861045948846 6.133886995635521 L 22.66926574738264 5.102847525348807 L 23.105861045948846 6.133699433422316 L 23.105861045948846 6.133886995635521 Z M 12.407360758745668 1.8526672009173463e-10 C 11.77481338893216 -0.000007617619713527815 11.164226962211847 0.23490700759782324 10.691246844184409 0.6602500131280749 C 10.21826672615697 1.0855930186583265 9.91573917953789 1.6718274522924874 9.840963042635932 2.3079191581795158 L 12.040732312382056 2.5732038006640323 C 12.051396682303954 2.4823190548970175 12.094608492785055 2.3985519006521137 12.16217889192038 2.3377722161443444 C 12.229749291055706 2.276992531636575 12.316984740313664 2.243422178955945 12.407360758745668 2.2434209346771237 L 12.407360758745668 1.8526672009173463e-10 Z M 15.322667393720153 1.8526672009173463e-10 L 12.407360758745668 1.8526672009173463e-10 L 12.407360758745668 2.2434209346771237 L 15.322667393720153 2.2434209346771237 L 15.322667393720153 1.8526672009173463e-10 Z M 17.889065109829886 2.3079191581795158 C 17.81428897292793 1.6718274522924874 17.51176142630885 1.0855930186583265 17.03878130828141 0.6602500131280749 C 16.56580119025397 0.23490700759782324 15.955214763533661 -0.000007617619713527815 15.322667393720153 1.8526672009173463e-10 L 15.322667393720153 2.2434209346771237 C 15.413043412152156 2.243422178955945 15.500278861410115 2.276992531636575 15.56784926054544 2.3377722161443444 C 15.635419659680766 2.3985519006521137 15.678631470161864 2.4823190548970175 15.689295840083762 2.5732038006640323 L 17.889065109829886 2.3079191581795158 Z M 18.114100714724987 4.222304979647469 L 17.889065109829886 2.3079191581795158 L 15.689295840083762 2.5732038006640323 L 15.914145531487897 4.487589978714141 L 18.114100714724987 4.222304979647469 Z M 22.66926574738264 5.102847525348807 L 20.913104376744556 5.865610985457897 L 21.786109060385996 7.927314801604916 L 23.542270431024082 7.164552054660135 L 22.66926574738264 5.102847525348807 Z M 25.926092648391496 6.199693519062339 C 25.609826313757704 5.644931427528823 25.10364692735306 5.226889307891227 24.50342346122332 5.024743909745984 C 23.90319999509358 4.8225985116007415 23.25061327240991 4.850387070323625 22.66926574738264 5.102847525348807 L 23.542270431024082 7.164552054660135 C 23.625332432705797 7.128446303546042 23.71858776102132 7.124638983952372 23.80436338334963 7.153513697489097 C 23.890139005677945 7.182388411025822 23.96247416424386 7.242125193020756 24.007662602592568 7.321403986400901 L 25.926092648391496 6.199693519062339 Z M 27.3837445574432 8.75644604545182 L 25.926092648391496 6.199693519062339 L 24.007662602592568 7.321403986400901 L 25.465314511644273 9.878155799626073 L 27.3837445574432 8.75644604545182 Z M 26.693318189415155 12.161211553927023 C 27.199889230933284 11.777582643135565 27.549948137414507 11.219138172266518 27.67719210170736 10.591649590299948 C 27.80443606600021 9.964161008333377 27.700027155106092 9.31120220880702 27.3837445574432 8.75644604545182 L 25.465314511644273 9.878155799626073 C 25.51049891449506 9.957427065779802 25.525401304086152 10.050730240863372 25.50719856766216 10.140384889629694 C 25.48899583123817 10.230039538396015 25.438951849885413 10.30981822095543 25.36654937800386 10.36460517463347 L 26.693318189415155 12.161211553927023 Z M 25.034812105213835 13.417152381132382 L 26.693318189415155 12.161211553927023 L 25.36654937800386 10.36460517463347 L 23.70823202416458 11.620546001838829 L 25.034812105213835 13.417152381132382 Z M 26.693318189415155 17.751067575101295 L 25.034812105213835 16.495126747895938 L 23.70823202416458 18.291733127189488 L 25.36654937800386 19.54767395439485 L 26.693318189415155 17.751067575101295 Z M 27.3837445574432 21.155833796740808 C 27.700027155106092 20.601077633385607 27.80443606600021 19.94811812069494 27.67719210170736 19.32062953872837 C 27.549948137414507 18.6931409567618 27.199889230933284 18.134696485892754 26.693318189415155 17.751067575101295 L 25.36654937800386 19.54767395439485 C 25.438951849885413 19.60246090807289 25.48899583123817 19.682239590632303 25.50719856766216 19.771894239398623 C 25.525401304086152 19.861548888164943 25.51049891449506 19.954852063248516 25.465314511644273 20.034123329402245 L 27.3837445574432 21.155833796740808 Z M 25.926092648391496 23.712584896801673 L 27.3837445574432 21.155833796740808 L 25.465314511644273 20.034123329402245 L 24.007662602592568 22.59087442946311 L 25.926092648391496 23.712584896801673 Z M 22.66926574738264 24.809431603679514 C 23.25061327240991 25.061892058704696 23.90319999509358 25.089679904263267 24.50342346122332 24.887534506118026 C 25.10364692735306 24.685389107972785 25.609826313757704 24.267346988335188 25.926092648391496 23.712584896801673 L 24.007662602592568 22.59087442946311 C 23.96244507399814 22.67012299136248 23.89010856476455 22.729833709430565 23.804343665252105 22.758704812572976 C 23.71857876573966 22.787575915715387 23.625337862884997 22.7836034122245 23.542270431024082 22.74753951215498 L 22.66926574738264 24.809431603679514 Z M 20.913104376744556 24.04666814357042 L 22.66926574738264 24.809431603679514 L 23.542270431024082 22.74753951215498 L 21.78629215700589 21.984964327423402 L 20.913104376744556 24.04666814357042 Z M 17.889065109829886 27.60435961426665 L 18.113916209669558 25.689972723052232 L 15.914330036543324 25.424689863478488 L 15.689295840083762 27.33907390203567 L 17.889065109829886 27.60435961426665 Z M 15.322667393720153 29.91227912902832 C 15.955214763533661 29.9122867468333 16.56580119025397 29.677371764848342 17.03878130828141 29.25202875931809 C 17.51176142630885 28.82668575378784 17.81428897292793 28.240451320153678 17.889065109829886 27.60435961426665 L 15.689295840083762 27.33907390203567 C 15.678631470161864 27.429958647802682 15.635419659680766 27.513726871794052 15.56784926054544 27.57450655630182 C 15.500278861410115 27.635286240809588 15.413043412152156 27.668856950072374 15.322667393720153 27.668858194351195 L 15.322667393720153 29.91227912902832 Z M 12.407360758745668 29.91227912902832 L 15.322667393720153 29.91227912902832 L 15.322667393720153 27.668858194351195 L 12.407360758745668 27.668858194351195 L 12.407360758745668 29.91227912902832 Z M 9.840963042635932 27.60435961426665 C 9.91573917953789 28.240451320153678 10.21826672615697 28.82668575378784 10.691246844184409 29.25202875931809 C 11.164226962211847 29.677371764848342 11.77481338893216 29.9122867468333 12.407360758745668 29.91227912902832 L 12.407360758745668 27.668858194351195 C 12.316984740313664 27.668856950072374 12.229749291055706 27.635286240809588 12.16217889192038 27.57450655630182 C 12.094608492785055 27.513726871794052 12.051396682303954 27.429958647802682 12.040732312382056 27.33907390203567 L 9.840963042635932 27.60435961426665 Z M 9.654141110747673 26.014522389341437 L 9.840963042635932 27.60435961426665 L 12.040732312382056 27.33907390203567 L 11.853911788929334 25.749236677110456 L 9.654141110747673 26.014522389341437 Z M 5.636735428126094 22.11826044204572 L 4.18775877776839 22.74753951215498 L 5.060762757192063 24.809431603679514 L 6.509739055440884 24.18015253357025 L 5.636550218852896 22.11826044204572 L 5.636735428126094 22.11826044204572 Z M 4.18775877776839 22.74753951215498 C 4.1047183317524425 22.783592472395437 4.011322297425692 22.787559827731467 3.9255883614882707 22.758687696629565 C 3.83985442555085 22.729815565527662 3.7675496941440785 22.670108739219494 3.7223659019821373 22.59087442946311 L 1.8039356801287654 23.712584896801673 C 2.1202020147625573 24.267346988335188 2.6263829856571803 24.685389107972785 3.226606451786922 24.887534506118026 C 3.8268299179166636 25.089679904263267 4.479415232164793 25.061892058704696 5.060762757192063 24.809431603679514 L 4.18775877776839 22.74753951215498 Z M 3.7223659019821373 22.59087442946311 L 2.264713112658221 20.034123329402245 L 0.34628306685929144 21.155833796740808 L 1.8039356801287654 23.712584896801673 L 3.7223659019821373 22.59087442946311 Z M 2.264713112658221 20.034123329402245 C 2.2195287098074337 19.954852063248516 2.204626320216338 19.861548888164943 2.2228290566403306 19.771894239398623 C 2.241031793064323 19.682239590632303 2.2910750701993114 19.60246090807289 2.3634775420808634 19.54767395439485 L 1.0367111954317596 17.751067575101295 C 0.5301401539136298 18.134696485892754 0.18008160504299392 18.6931409567618 0.05283764075014312 19.32062953872837 C -0.0744063235427077 19.94811812069494 0.030000469196401147 20.601077633385607 0.34628306685929144 21.155833796740808 L 2.264713112658221 20.034123329402245 Z M 2.3634775420808634 19.54767395439485 L 3.49548454231498 18.690500376763065 L 2.1685331624471207 16.89389399746951 L 1.0367111954317596 17.751067575101295 L 2.3634775420808634 19.54767395439485 Z M 1.0367111954317596 12.161211553927023 L 2.1687176675025492 13.018571980607703 L 3.49548454231498 11.22196560131415 L 2.3634775420808634 10.36460517463347 L 1.0367111954317596 12.161211553927023 Z M 0.34628306685929144 8.75644604545182 C 0.030000469196401147 9.31120220880702 -0.0744063235427077 9.964161008333377 0.05283764075014312 10.591649590299948 C 0.18008160504299392 11.219138172266518 0.5301401539136298 11.777582643135565 1.0367111954317596 12.161211553927023 L 2.3634775420808634 10.36460517463347 C 2.2910750701993114 10.30981822095543 2.241031793064323 10.230039538396015 2.2228290566403306 10.140384889629694 C 2.204626320216338 10.050730240863372 2.2195287098074337 9.957427065779802 2.264713112658221 9.878155799626073 L 0.34628306685929144 8.75644604545182 Z M 1.8039356801287654 6.199693519062339 L 0.34628306685929144 8.75644604545182 L 2.264713112658221 9.878155799626073 L 3.7223659019821373 7.321403986400901 L 1.8039356801287654 6.199693519062339 Z M 5.060762757192063 5.102847525348807 C 4.479415232164793 4.850387070323625 3.8268299179166636 4.8225985116007415 3.226606451786922 5.024743909745984 C 2.6263829856571803 5.226889307891227 2.1202020147625573 5.644931427528823 1.8039356801287654 6.199693519062339 L 3.7223659019821373 7.321403986400901 C 3.7675496941440785 7.242169676644515 3.83985442555085 7.182464276664964 3.9255883614882707 7.153592145563061 C 4.011322297425692 7.1247200144611575 4.1047183317524425 7.128685943468574 4.18775877776839 7.16473890370903 L 5.060762757192063 5.102847525348807 Z M 6.509739055440884 5.732127308622375 L 5.060762757192063 5.102847525348807 L 4.18775877776839 7.16473890370903 L 5.636735428126094 7.79401797381829 L 6.509739055440884 5.732127308622375 Z M 9.840963042635932 2.3079191581795158 L 9.654141110747673 3.897756739686883 L 11.853911788929334 4.163041738753554 L 12.040732312382056 2.5732038006640323 L 9.840963042635932 2.3079191581795158 Z M 9.517162304100422 7.458813632756164 C 10.639200397599229 6.818316933797751 11.67521273391926 5.682398004790161 11.853911788929334 4.16285417654035 L 9.654141110747673 3.897756739686883 C 9.58362144209486 4.497684908650222 9.142965409307331 5.0972392457974625 8.429276835790155 5.504794061410848 L 9.517162304100422 7.458813632756164 Z M 5.636735428126094 7.79401797381829 C 6.981408888282225 8.37805523736269 8.41598472540382 8.087532334009813 9.517162304100422 7.458813632756164 L 8.429276835790155 5.504794061410848 C 7.745494498329191 5.895149315098715 7.0482361176034 5.966003949798728 6.509739055440884 5.732127308622375 L 5.636550218852896 7.79401797381829 L 5.636735428126094 7.79401797381829 Z M 5.188510677325721 14.95613956451416 C 5.188510677325721 13.628782195992637 4.718133172117371 12.14793760493909 3.49548454231498 11.22196560131415 L 2.1687176675025492 13.018571980607703 C 2.6704780213874786 13.39864487586459 2.973233123874808 14.103265743645448 2.973233123874808 14.95613956451416 L 5.188510677325721 14.95613956451416 Z M 9.517162304100422 22.453464783107847 C 8.41598472540382 21.824746081854197 6.981408888282225 21.53422317850132 5.636735428126094 22.11826044204572 L 6.509739055440884 24.18015253357025 C 7.0482361176034 23.9462758923939 7.745494498329191 24.01731800016158 8.429276835790155 24.40786019204388 L 9.517162304100422 22.453464783107847 Z M 3.49548454231498 18.690500376763065 C 4.718317765200021 17.764528373138123 5.188510677325721 16.283496933035686 5.188510677325721 14.95613956451416 L 2.973233123874808 14.95613956451416 C 2.973233123874808 15.809200412722845 2.67029351633205 16.51400804040706 2.1685331624471207 16.89389399746951 L 3.49548454231498 18.690500376763065 Z M 18.01995243277691 22.350081632252294 C 16.99797109633374 22.96664850398508 16.078445181697397 24.029282000032623 15.914330036543324 25.424689863478488 L 18.113916209669558 25.689972723052232 C 18.174651735222454 25.173051129741694 18.542019214120824 24.64640966406233 19.153805011728643 24.277179964106107 L 18.01995243277691 22.350081632252294 Z M 21.78629215700589 21.984964327423402 C 20.476693935342663 21.416257110141867 19.07830124731876 21.711454493529306 18.01995243277691 22.350081632252294 L 19.153805011728643 24.277179964106107 C 19.778144063242483 23.900472179212887 20.422420400063615 23.833730095644896 20.913104376744556 24.04666814357042 L 21.78629215700589 21.984964327423402 Z M 11.853911788929334 25.749236677110456 C 11.67521273391926 24.229879876200616 10.639200397599229 23.094148420260694 9.517162304100422 22.453464783107847 L 8.429276835790155 24.40786019204388 C 9.142965409307331 24.815228024890065 9.58362144209486 25.4145942203781 9.654141110747673 26.014522389341437 L 11.853911788929334 25.749236677110456 Z M 22.17230490167383 14.95613956451416 C 22.17230490167383 16.150574249074545 22.614992564212475 17.463910807285778 23.70823202416458 18.291733127189488 L 25.034812105213835 16.495126747895938 C 24.641231132184465 16.197125670460522 24.387582455124743 15.641878560337895 24.387582455124743 14.95613956451416 L 22.17230490167383 14.95613956451416 Z M 23.70823202416458 11.620546001838829 C 22.614992564212475 12.448368321742537 22.17230490167383 13.761517941759342 22.17230490167383 14.95613956451416 L 24.387582455124743 14.95613956451416 C 24.387582455124743 14.270400568690425 24.641231132184465 13.715153458567796 25.034812105213835 13.417152381132382 L 23.70823202416458 11.620546001838829 Z M 18.01995243277691 7.562198209940333 C 19.07830124731876 8.200825348663322 20.47669543180542 8.49602201888645 21.786109060385996 7.927314801604916 L 20.913104376744556 5.865610985457897 C 20.422420400063615 6.078735971577857 19.778144063242483 6.011620100766534 19.153805011728643 5.634912315873316 L 18.01995243277691 7.562198209940333 Z M 15.914145531487897 4.487589978714141 C 16.07826067664197 5.882997842160006 16.99797109633374 6.945631338207547 18.01995243277691 7.562198209940333 L 19.153805011728643 5.634912315873316 C 18.542019214120824 5.265869576397915 18.174836240277884 4.739413511152443 18.114100714724987 4.222304979647469 L 15.914145531487897 4.487589978714141 ZM 10.940848381726763 2.440468233188403 L 9.840963042635932 2.3079191581795158 M 16.789179770739057 2.440468233188403 L 15.689295840083762 2.5732038006640323 M 24.96687762549203 6.760548752731619 L 25.926092648391496 6.199693519062339 M 26.424529534543737 9.317300565956792 L 27.3837445574432 8.75644604545182 M 26.030026740454993 11.262908364280246 L 25.36654937800386 10.36460517463347 M 26.030026740454993 18.64937076474807 L 26.693318189415155 17.751067575101295 M 26.424529534543737 20.594978563071525 L 27.3837445574432 21.155833796740808 M 24.96687762549203 23.15172966313239 L 24.007662602592568 22.59087442946311 M 23.105861045948846 23.778578269277386 L 23.542270431024082 22.74753951215498 M 16.789179770739057 27.471810895839916 L 17.889065109829886 27.60435961426665 M 10.940848381726763 27.471810895839916 L 9.840963042635932 27.60435961426665 M 4.624168867061397 23.778578269277386 L 4.18775877776839 22.74753951215498 M 2.763335208083659 23.15172966313239 L 1.8039356801287654 23.712584896801673 M 1.3054980897587563 20.594978563071525 L 2.264713112658221 20.034123329402245 M 1.7000022922830393 18.64937076474807 L 2.3634775420808634 19.54767395439485 M 1.7000022922830393 11.262908364280246 L 1.0367111954317596 12.161211553927023 M 1.3054980897587563 9.317300565956792 L 2.264713112658221 9.878155799626073 M 2.7631507030282303 6.760548752731619 L 1.8039356801287654 6.199693519062339 M 4.624168867061397 6.133886995635521 L 4.18775877776839 7.16473890370903 M 6.073328966147876 6.762979216695885 L 5.636735428126094 7.79401797381829 M 6.073328966147876 23.149299199168127 L 6.509739055440884 24.18015253357025 M 2.8320091164627135 17.79219718711629 L 2.1685331624471207 16.89389399746951 M 17.014030870578726 25.55723858190522 L 18.113916209669558 25.689972723052232 M 24.371337559633776 12.518849191485605 L 23.708046110673614 11.620546001838829 M 21.349513761819793 6.896462893531407 L 21.78592314689503 7.927314801604916 M 17.014030870578726 4.355040547123099 L 15.914145531487897 4.487589978714141" fill="rgb(34.00000177323818,10.000000353902578,0)"/>
        </svg>