<svg 
          width="34" 
          height="28.468509674072266" fill="none" 
          xmlns="http://www.w3.org/2000/svg">
          <path d="M 33.64558947086334 24.187411376097238 C 33.41575744189322 23.765072252774182 33.07622336782515 23.3959759993428 32.64936399459839 23.12736616780699 L 17.380707144737244 13.512920054703532 L 17.380707144737244 12.153878011745999 C 17.380441519724627 12.107099519757432 17.402820327319205 12.06485250916807 17.436222672462463 12.03499956842315 C 17.572753922082484 12.023005083196034 17.75351247098297 12.001147814557921 17.966145277023315 11.95936702772618 C 18.401703871786594 11.872806827791152 18.974057849496603 11.713614175059242 19.54880392551422 11.341518596316574 C 20.391831248998642 10.79137159140548 21.090558845549822 10.042249153425512 21.580636978149414 9.156723028193635 C 22.070383071899414 8.271263502383887 22.35001983929942 7.247467063157545 22.349754214286804 6.167496934622382 C 22.350285464312037 4.4682116622131645 21.659659311175346 2.918591305692911 20.549745202064514 1.8057696141130937 C 19.441225618124008 0.6920150222309331 17.89701659977436 0 16.204122066497803 0 C 14.93523145467043 0 13.746227566152811 0.38848802877939737 12.766602575778961 1.0536488676069098 C 11.78651274368167 1.7186763804920302 11.009227877482772 2.6579109996288826 10.541462242603302 3.7662679879633734 C 10.28838801663369 4.36672520042605 10.568754531443119 5.0596737107881955 11.167074859142303 5.313823508201357 C 11.765660792589188 5.567573502547276 12.456485414877534 5.286969070601668 12.709360420703888 4.6865784575611205 C 12.996368234977126 4.005025200471413 13.479009248316288 3.421559801070093 14.084767043590546 3.0110818886653767 C 14.691056113690138 2.600737238653985 15.414618734270334 2.3619139351163523 16.204056203365326 2.3619139351163523 C 17.254271019250154 2.3619139351163523 18.195180647075176 2.7857192942858533 18.885274410247803 3.4767348803413816 C 19.57337600365281 4.168683366699253 19.995453092562457 5.1128485672910005 19.995718717575073 6.167496934622382 C 19.995453092562457 6.840054376446508 19.824390122666955 7.463367773414717 19.522507309913635 8.010049765452155 C 19.22055809572339 8.555798793638184 18.786792973056436 9.021452198383125 18.266300797462463 9.36069621408114 C 18.063496116548777 9.496500442984818 17.761614174582064 9.595987706732155 17.517637610435486 9.641700020137787 C 17.396246988791972 9.665089266132071 17.290859928820282 9.677549876814343 17.222195863723755 9.683014031129387 C 17.18753180024214 9.686479104573246 17.16242921713274 9.688011781900046 17.149347186088562 9.688478234099186 L 17.142375826835632 9.688478234099186 L 16.982735753059387 9.69047723354813 L 16.826082825660706 9.737256464294601 C 15.759266383945942 10.05417740860945 15.027071025861005 11.037125301984824 15.026805400848389 12.153945119560664 L 15.026805400848389 13.549302658102366 L 1.2336961403489113 23.204930600138237 L 1.2339618727564812 23.20399719144336 C 0.4459852986037731 23.755610209779164 -0.0007295743032358359 24.649533073222795 8.944428060431164e-7 25.576840040891845 C 8.944428060431164e-7 25.86630693038611 0.04369619069620967 26.159372031598284 0.13287978805601597 26.443374781671817 C 0.5103329140692949 27.64922035999367 1.623301900923252 28.46850967407227 2.8820323646068573 28.46850967407227 L 31.11776852607727 28.46850967407227 C 32.402729488909245 28.46850967407227 33.531769048422575 27.615369551420812 33.8874409198761 26.376205959903135 L 33.8874409198761 26.37567113095596 C 33.96261279284954 26.111525923229145 34 25.84238413834144 34 25.57677293307718 C 34.00000000000001 25.086798220088934 33.87581994011998 24.610216949571466 33.64558947086334 24.187411376097238 Z M 31.62544560432434 25.724037982003086 L 31.62544560432434 25.723505186626056 C 31.560500292805955 25.94986777323532 31.353046343661845 26.10706295169589 31.11783540248871 26.10706295169589 L 2.8820323646068573 26.10706295169589 C 2.651270652189851 26.10706295169589 2.4472040431573987 25.955799157170556 2.3783407658338547 25.735966904452226 C 2.3612079542363063 25.68225826756185 2.3538368940353394 25.62901557640193 2.3538368940353394 25.57677293307718 C 2.3543017377996875 25.40665115947867 2.4351182375103235 25.24246039646463 2.5796182453632355 25.141973267585687 L 2.580149456858635 25.141973267585687 L 16.238321244716644 15.581901769706631 L 31.398335337638855 25.127579658125235 C 31.478421273175627 25.178356311856174 31.537922359537333 25.243991952808233 31.5808207988739 25.321622921012544 C 31.623453612672165 25.39918725802019 31.646495461463928 25.487281222628898 31.646495461463928 25.576840040891845 C 31.64649546146393 25.62508452247422 31.6395237291581 25.673327967412444 31.62544560432434 25.724037982003086 Z" fill="rgb(34.00000177323818,10.000000353902578,0)"/>
        </svg>