<svg 
          width="30.951213836669922" 
          height="26.9429931640625" fill="none" 
          xmlns="http://www.w3.org/2000/svg">
          <path d="M 6.2972909011625955 2.720714726938017 C 3.9090232252192436 3.812400024312686 2.159387011860692 6.409004988091713 2.159387011860692 9.505378976622648 C 2.159387011860692 12.668722747599636 3.453896494626099 15.106958569047809 5.3096305195415265 17.196669321913205 C 6.839095582977491 18.918852507616837 8.690582709370341 20.346207883814987 10.496247710753503 21.738292739029937 C 10.925116374210516 22.068966872906685 11.351393943904927 22.39762518008721 11.770171053539407 22.72772348912431 C 12.52743929256577 23.324722027863373 13.202924059269366 23.848590833418605 13.854051240348273 24.22907481342359 C 14.505466301666063 24.609846716574193 15.02990944540226 24.78360612544036 15.475606918334961 24.78360612544036 C 15.921304391267661 24.78360612544036 16.44574753500386 24.609846716574193 17.09716259632165 24.22907481342359 C 17.748289777400554 23.848590833418605 18.423746571240404 23.324722027863373 19.181115546898795 22.72772348912431 C 19.599892656533275 22.39762518008721 20.026155810764156 22.068966872906685 20.455010058757644 21.738292739029937 C 22.260689475604334 20.346207883814987 24.11214845752077 18.918852507616837 25.641570274566156 17.196669321913205 C 27.497347545872163 15.106958569047809 28.79182682480923 12.668722747599636 28.79182682480923 9.505378976622648 C 28.79182682480923 6.409004988091713 27.042148737961387 3.812400024312686 24.65386664655451 2.720714726938017 C 22.333677198404857 1.6601533595729572 19.21609638527306 1.9410174757088035 16.253561433328542 5.0190941220936685 C 16.050003225605646 5.230555696122095 15.769139584885385 5.350041592039663 15.475606918334961 5.350041592039663 C 15.182074251784536 5.350041592039663 14.901210611064277 5.230555696122095 14.697652403341381 5.0190941220936685 C 11.735059789542753 1.9410174757088035 8.617494593163112 1.6601533595729572 6.2972909011625955 2.720714726938017 Z M 15.475606918334961 2.7705682055858634 C 12.14719960789913 -0.20734156156604122 8.420112403337043 -0.6239165426967936 5.399561731978475 0.7567811258668677 C 2.209355470373593 2.2150295272363465 0 5.601106456312829 0 9.505378976622648 C 0 13.342595221704183 1.5986661528708028 16.270004702080794 3.6950279001292414 18.630502732920302 C 5.3738073050993105 20.520830118248355 7.428607726496181 22.10308514356627 9.243370944716654 23.500352529595972 C 9.654748545439055 23.81706262687776 10.053789684216786 24.12441567241027 10.433323526008598 24.423562758131645 C 11.170725368555829 25.00486976430522 11.962342310719546 25.624757571024844 12.76456894823262 26.09348851500189 C 13.566565281554588 26.56207551885771 14.481713050027201 26.9429931640625 15.475606918334961 26.9429931640625 C 16.469500786642723 26.9429931640625 17.384648555115334 26.56207551885771 18.186644888437304 26.09348851500189 C 18.988929101998153 25.624757571024844 19.78041647660279 25.00486976430522 20.51791914158838 24.423562758131645 C 20.897395407332414 24.12441567241027 21.29645160512115 23.81706262687776 21.707886824794492 23.500352529595972 C 23.522635627551438 22.10308514356627 25.577363285180034 20.520830118248355 27.256214767467736 18.630502732920302 C 29.35254768379912 16.270004702080794 30.951213836669922 13.342595221704183 30.951213836669922 9.505378976622648 C 30.951213836669922 5.601106456312829 28.741874154661147 2.2150295272363465 25.55159581573863 0.7567811258668677 C 22.531045144380062 -0.6239165426967936 18.804085962863102 -0.20734156156604122 15.475606918334961 2.7705682055858634 Z" fill="rgb(34.00000177323818,10.000000353902578,0)"/>
        </svg>