<svg 
          width="29.850000381469727" 
          height="27.136363983154297" fill="none" 
          xmlns="http://www.w3.org/2000/svg">
          <path d="M 24.206652640702487 1.422188887654872 C 25.18140495741535 2.1931209727077 25.85376055389999 3.44021388724141 26.1274726773423 4.746541896703699 C 26.160145592585227 4.756218076108002 26.192642247619982 4.769360126657448 26.22474502698933 4.784362268901532 L 29.276813738173587 6.210644122222422 C 29.626550664914618 6.3740820083862575 29.850000381469727 6.724927158665285 29.850000381469727 7.11061816199314 L 29.850000381469727 25.75515372505227 C 29.850000381469727 26.415076617980763 29.217826229972154 26.891639261060106 28.582504942908418 26.710650265195 L 20.120811144948583 24.300098455191296 L 10.060155772981124 27.099911617044402 C 9.878792678468143 27.150383748547274 9.686813772695052 27.148405687360057 9.506531774893483 27.09420667941231 L 0.7080240150871361 24.449065188542185 C 0.2877100356928451 24.322704106566665 0 23.93608415710531 0 23.497631691178764 L 0 4.521965330287559 C 0 3.858474065724933 0.6385704151936124 3.381393163639272 1.2757324167206205 3.5688557918342667 L 9.786063101183435 6.072722797984069 L 14.11206012163766 4.735172996924019 C 14.17219212718309 4.716580848203394 14.232748866370848 4.703971130048731 14.293087181121972 4.69700613027827 C 14.46011075723992 3.708508510009981 14.928256480139384 2.758167602374834 15.711845820468897 1.8321551697961997 C 16.641487088681696 0.7335449207734099 18.272059151686868 0.08806573800667244 19.86242879740066 0.010797099838659483 C 21.511790977552128 -0.06933772741796604 22.770504380441793 0.28633857274769525 24.206652640702487 1.422188887654872 Z M 1.9893846599182325 5.85041426057867 L 1.9893846599182325 22.7590521773224 L 9.25797772079468 24.942841342868228 L 9.25797772079468 7.987136252923443 L 1.9893846599182325 5.85041426057867 Z M 14.240764506655704 6.776721159522923 L 11.247479807825083 7.700696769059302 L 11.247479807825083 24.7046429438928 L 18.806992489833828 22.60308366819825 L 18.80746789171826 17.63597073840578 C 18.80746789171826 17.087224623738912 19.252807501355115 16.642377061827776 19.802160933356845 16.642377061827776 C 20.351514231918674 16.642377061827776 20.796852551636494 17.087224623738912 20.796852551636494 17.63597073840578 L 20.7964952885437 22.426697865900376 L 27.860617144910428 24.438578339981582 L 27.860617144910428 7.742731865215926 L 26.18931192965083 6.959872229972967 C 26.161006666361207 7.125413221068876 26.124600052670825 7.287768413173805 26.079861320952293 7.445942836607679 C 25.750545213657904 8.61024703116262 25.217801490833267 9.669979902232688 24.476868794439543 10.628373570875231 L 20.779669762568027 15.29193579824803 C 20.363307917177814 15.817125142816558 19.556572669999834 15.78861968437909 19.178400923726077 15.235356561696689 L 15.72345900602304 10.1805330912834 C 15.153050270089219 9.37621110829481 14.753814991089522 8.659280039176199 14.527780565907596 8.01594417513469 C 14.383961632434184 7.606608834582068 14.290662544775433 7.2017774725597725 14.240764506655704 6.776721159522923 Z M 19.959076292475036 1.9956362105136172 C 18.87474037196311 2.048319035676174 17.7605574152147 2.4893800607022047 17.23118184891091 3.11497358488244 C 16.593313016232564 3.86877962472416 16.279910656755792 4.574063771806386 16.218229958848678 5.288580701962928 C 16.143896144885215 6.149673859298698 16.19360725038476 6.7564499313712645 16.404916293460246 7.357874299648554 C 16.561594463155842 7.803809553998696 16.87487885620084 8.36639617192999 17.35660396822386 9.045923363084714 L 20.059212440300143 12.99982326677107 L 22.90976911020143 9.404289199617576 C 23.48738764842282 8.657046605695136 23.905021309501805 7.82628932482175 24.16541793234319 6.905651599819167 C 24.52328808772113 5.64039378574023 23.98266593974901 3.7796996402791034 22.971730771378407 2.9801505823671604 C 21.93407533051272 2.1594684183219215 21.149587761735017 1.937794809976994 19.959076292475036 1.9956362105136172 Z M 20.1634208180395 3.046340007771151 C 21.811481158524654 3.046340007771151 23.14749851959632 4.380880087607516 23.14749851959632 6.027118521466643 C 23.14749851959632 7.67335695532577 21.811481158524654 9.007896675728059 20.1634208180395 9.007896675728059 C 18.515360655474215 9.007896675728059 17.179344539841622 7.67335695532577 17.179344539841622 6.027118521466643 C 17.179344539841622 4.380880087607516 18.515360655474215 3.046340007771151 20.1634208180395 3.046340007771151 Z M 20.1634208180395 5.033525563756787 C 19.614067519477672 5.033525563756787 19.168729199759856 5.478372361870514 19.168729199759856 6.027118521466643 C 19.168729199759856 6.575864681062772 19.614067519477672 7.020711479176498 20.1634208180395 7.020711479176498 C 20.71277425004123 7.020711479176498 21.158113859678085 6.575864681062772 21.158113859678085 6.027118521466643 C 21.158113859678085 5.478372361870514 20.71277425004123 5.033525563756787 20.1634208180395 5.033525563756787 Z" fill="rgb(34.00000177323818,10.000000353902578,0)"/>
        </svg>